<?xml version="1.0" encoding="UTF-8" standalone="no"?><!DOCTYPE svg PUBLIC "-//W3C//DTD SVG 1.1//EN" "http://www.w3.org/Graphics/SVG/1.1/DTD/svg11.dtd"><svg width="100%" height="100%" viewBox="0 0 417 521" version="1.1" xmlns="http://www.w3.org/2000/svg" xmlns:xlink="http://www.w3.org/1999/xlink" xml:space="preserve" xmlns:serif="http://www.serif.com/" style="fill-rule:evenodd;clip-rule:evenodd;"><path id="base-favorite" serif:id="base favorite" d="M208.333,0c-115.059,0 -208.333,93.274 -208.333,208.333c0,156.25 208.333,312.5 208.333,312.5c0,0 208.333,-156.25 208.333,-312.5c0,-115.059 -93.274,-208.333 -208.333,-208.333Z" style="fill:#d97757;fill-rule:nonzero;"/><circle cx="208.333" cy="208.333" r="166.667" style="fill:#fff;stroke:#e2e8f0;stroke-width:9.52px;"/><g transform="matrix(400,0,0,400,100.454165,313.992083)"><path d="M0.349,-0.113l0,-0.244c0,-0.018 -0.003,-0.033 -0.009,-0.046c-0.006,-0.013 -0.016,-0.023 -0.028,-0.03c-0.013,-0.007 -0.029,-0.011 -0.049,-0.011c-0.017,0 -0.032,0.003 -0.045,0.009c-0.013,0.006 -0.023,0.014 -0.03,0.025c-0.007,0.01 -0.01,0.023 -0.01,0.036l-0.129,0c0,-0.022 0.005,-0.043 0.016,-0.062c0.01,-0.02 0.025,-0.037 0.045,-0.053c0.019,-0.015 0.043,-0.027 0.07,-0.036c0.027,-0.009 0.058,-0.013 0.091,-0.013c0.04,0 0.076,0.007 0.107,0.02c0.031,0.014 0.056,0.034 0.074,0.061c0.018,0.027 0.027,0.061 0.027,0.102l0,0.231c0,0.026 0.002,0.049 0.005,0.068c0.004,0.019 0.009,0.035 0.015,0.049l0,0.008l-0.131,-0c-0.006,-0.013 -0.011,-0.031 -0.014,-0.051c-0.003,-0.021 -0.005,-0.041 -0.005,-0.061Zm0.018,-0.209l0.001,0.076l-0.082,0c-0.02,0 -0.038,0.002 -0.053,0.006c-0.015,0.004 -0.028,0.01 -0.038,0.018c-0.01,0.008 -0.017,0.017 -0.022,0.027c-0.005,0.011 -0.007,0.022 -0.007,0.035c0,0.013 0.003,0.025 0.009,0.035c0.006,0.011 0.015,0.019 0.026,0.025c0.011,0.006 0.025,0.009 0.041,0.009c0.023,0 0.043,-0.005 0.059,-0.014c0.017,-0.009 0.03,-0.021 0.04,-0.034c0.01,-0.013 0.015,-0.026 0.015,-0.038l0.037,0.056c-0.004,0.013 -0.011,0.027 -0.02,0.042c-0.009,0.015 -0.021,0.029 -0.035,0.042c-0.014,0.013 -0.032,0.024 -0.052,0.032c-0.02,0.008 -0.044,0.013 -0.07,0.013c-0.034,0 -0.065,-0.007 -0.092,-0.02c-0.027,-0.014 -0.048,-0.032 -0.064,-0.056c-0.016,-0.024 -0.023,-0.051 -0.023,-0.081c0,-0.028 0.005,-0.052 0.016,-0.074c0.01,-0.022 0.026,-0.04 0.046,-0.054c0.02,-0.015 0.046,-0.026 0.076,-0.034c0.03,-0.008 0.065,-0.011 0.105,-0.011l0.087,0Z" style="fill:#d97757;fill-rule:nonzero;"/></g><g transform="matrix(400,0,0,400,315.379168,313.992083)"></g></svg>